<?xml version="1.0" ?><svg fill="none" height="64" viewBox="0 0 64 64" width="64" xmlns="http://www.w3.org/2000/svg"><path clip-rule="evenodd" d="M49.4522 28.8726V44.148L31.9956 52.875L14.5391 44.148V28.8726L31.9956 20.1431L49.4522 28.8726Z" fill="url(#paint0_linear)" fill-rule="evenodd"/><path clip-rule="evenodd" d="M31.9946 20.1431V52.875L14.5381 44.148V28.8726L31.9946 20.1431Z" fill="url(#paint1_linear)" fill-rule="evenodd"/><path clip-rule="evenodd" d="M56 21.2344L49.4517 28.8709L31.9951 20.1438L38.541 12.5049L56 21.2344Z" fill="url(#paint2_linear)" fill-rule="evenodd"/><path clip-rule="evenodd" d="M7.99999 21.2295L14.5483 28.866L32.0049 20.1389L25.459 12.5L7.99999 21.2295Z" fill="url(#paint3_linear)" fill-rule="evenodd"/><path d="M20 27.4995C20 20.8721 25.3726 15.4995 32 15.4995C38.6274 15.4995 44 20.8721 44 27.4995C44 34.1269 38.6274 39.4995 32 39.4995C25.3726 39.4995 20 34.1269 20 27.4995Z" fill="white"/><path d="M30.4004 21.8996V32.3493L32.6307 33.0996V24.3347C32.6307 23.9243 32.8043 23.65 33.0812 23.7453C33.4459 23.8522 33.5171 24.2308 33.5171 24.6411V28.1415C34.9063 28.8523 36.0004 28.1411 36.0004 26.2615C36.0004 24.3347 35.3604 23.4796 33.4718 22.7924C32.7294 22.5271 31.348 22.0855 30.4004 21.8996Z" fill="black"/><path d="M33.2002 31.7737L36.8366 30.4602C37.2479 30.3109 37.3119 30.0996 36.9774 29.9885C36.642 29.8771 36.0349 29.9095 35.6224 30.0592L33.2002 30.9235V29.5468L33.3398 29.4994C33.3398 29.4994 34.04 29.2486 35.0248 29.1384C36.0091 29.0282 37.2147 29.1525 38.1604 29.516C39.2272 29.8583 39.3475 30.3612 39.077 30.7077C38.8053 31.0541 38.1411 31.3016 38.1411 31.3016L33.2002 33.0996V31.7737Z" fill="black"/><path d="M25.9413 31.1077C24.7423 30.7857 24.5423 30.1153 25.0877 29.7291C25.594 29.372 26.4516 29.1024 26.4516 29.1024L29.9998 27.8995V29.2704L27.4472 30.1427C26.9952 30.2979 26.9265 30.5153 27.2926 30.6301C27.6597 30.745 28.3237 30.7124 28.7752 30.5573L29.9998 30.1342V31.361C29.9216 31.3747 29.8349 31.3876 29.7554 31.4005C28.5299 31.5916 27.2257 31.5123 25.9413 31.1077Z" fill="black"/><path clip-rule="evenodd" d="M49.4517 44.1465L31.9951 52.876V37.6006L49.4517 28.8711V44.1465Z" fill="url(#paint4_linear)" fill-rule="evenodd"/><path clip-rule="evenodd" d="M14.5361 44.1465L31.9951 52.876V37.6006L14.5361 28.8711V44.1465Z" fill="url(#paint5_linear)" fill-rule="evenodd"/><path clip-rule="evenodd" d="M49.4517 28.8711L56 34.3264L38.541 43.0559L31.9951 37.6006L49.4517 28.8711Z" fill="url(#paint6_linear)" fill-rule="evenodd"/><path clip-rule="evenodd" d="M14.5483 28.8662L7.99999 34.3215L25.459 43.051L32.0049 37.5957L14.5483 28.8662Z" fill="url(#paint7_linear)" fill-rule="evenodd"/><defs><linearGradient gradientUnits="userSpaceOnUse" id="paint0_linear" x1="49.0846" x2="51.7922" y1="52.4947" y2="24.0582"><stop stop-color="#C6803A"/><stop offset="1" stop-color="#A4601D"/></linearGradient><linearGradient gradientUnits="userSpaceOnUse" id="paint1_linear" x1="34.5473" x2="20.0843" y1="42.2998" y2="27.0333"><stop stop-color="#9B5F1F"/><stop offset="1" stop-color="#824C1B"/></linearGradient><linearGradient gradientUnits="userSpaceOnUse" id="paint2_linear" x1="48.5888" x2="54.7331" y1="27.3284" y2="11.5505"><stop stop-color="#EEC089"/><stop offset="1" stop-color="#C18B54"/></linearGradient><linearGradient gradientUnits="userSpaceOnUse" id="paint3_linear" x1="24.9262" x2="18.1602" y1="31.1385" y2="17.7606"><stop stop-color="#EEC089"/><stop offset="1" stop-color="#C18B54"/></linearGradient><linearGradient gradientUnits="userSpaceOnUse" id="paint4_linear" x1="47.1751" x2="45.1224" y1="47.2115" y2="32.6185"><stop stop-color="#9B5F1F"/><stop offset="1" stop-color="#824C1B"/></linearGradient><linearGradient gradientUnits="userSpaceOnUse" id="paint5_linear" x1="16.6804" x2="19.0294" y1="47.0171" y2="32.5478"><stop stop-color="#C6803A"/><stop offset="1" stop-color="#A4601D"/></linearGradient><linearGradient gradientUnits="userSpaceOnUse" id="paint6_linear" x1="28.0967" x2="33.0365" y1="36.0173" y2="47.3444"><stop stop-color="#EEC089"/><stop offset="1" stop-color="#C18B54"/></linearGradient><linearGradient gradientUnits="userSpaceOnUse" id="paint7_linear" x1="34.6307" x2="28.5863" y1="36.4153" y2="53.7257"><stop stop-color="#EEC089"/><stop offset="1" stop-color="#C18B54"/></linearGradient></defs></svg>